<svg width="58" height="58" viewBox="0 0 58 58" fill="none" xmlns="http://www.w3.org/2000/svg">
<g clip-path="url(#clip0_192_47)">
<path d="M57.9353 29C56.7753 13.0257 44.9659 0 28.9677 0C12.9694 0 0 12.9839 0 29C0 45.0161 12.9694 58 28.9677 58C31.0861 58.0009 33.1982 57.7698 35.2664 57.3107C35.0525 57.273 34.8356 57.2545 34.6184 57.2554C32.1716 57.3364 29.768 57.1448 27.3953 56.4583C24.9101 55.7594 22.5748 54.6081 20.5064 53.0619C18.1673 51.2842 16.2013 49.062 14.721 46.5227C13.2992 44.1536 12.3818 41.5159 12.0263 38.775C11.6423 35.7847 11.7972 32.766 12.6838 29.808C13.5325 26.929 14.9628 24.2552 16.8861 21.9523C18.7859 19.6782 20.9874 17.86 23.9421 16.9953C26.0763 16.3708 28.2145 16.329 30.3136 16.6568C32.8008 17.0426 35.0199 18.2538 36.9008 19.9533C38.6927 21.572 40.0953 23.5021 40.6935 25.872C40.9441 26.8634 41.1435 28.0302 40.866 28.9649C39.5415 33.4323 34.5119 34.6853 31.3201 31.6909C29.2183 29.7189 26.8173 29.1133 24.0634 29.7904C21.5789 30.4028 19.054 33.551 18.9529 36.13C18.8788 38.0183 19.2089 39.8595 19.7317 41.6696C20.5125 44.348 21.9395 46.7929 23.8869 48.7888C25.7341 50.7163 28.0016 52.0449 30.5292 52.958C32.4391 53.6507 34.4637 53.9712 36.4939 53.9022C38.5204 53.8591 40.5311 53.5336 42.4679 52.9351C44.7762 52.21 46.9514 51.1139 48.9082 49.6898C49.4696 49.2746 50.0093 48.8307 50.525 48.3599C55.6449 43.2977 58.4743 36.4186 57.9353 29Z" fill="#672EC4"/>
</g>
<!-- <defs>
<clipPath id="clip0_192_47">
<rect width="58" height="58" fill="white"/>
</clipPath>
</defs> -->
</svg>
